<?xml version="1.0" standalone="no"?>
<!DOCTYPE svg PUBLIC "-//W3C//DTD SVG 20010904//EN"
 "http://www.w3.org/TR/2001/REC-SVG-20010904/DTD/svg10.dtd">
<svg version="1.0" xmlns="http://www.w3.org/2000/svg"
 width="2641.000000pt" height="569.000000pt" viewBox="0 0 2641.000000 569.000000"
 preserveAspectRatio="xMidYMid meet">

<g transform="translate(0.000000,569.000000) scale(0.100000,-0.100000)"
fill="#000000" stroke="none">
<path d="M15640 5620 l-6965 -5 30 -21 c142 -100 495 -324 510 -324 3 0 22
-11 43 -23 100 -63 436 -233 662 -335 248 -112 693 -272 940 -338 30 -8 78
-21 105 -29 100 -29 355 -87 485 -110 47 -8 108 -20 135 -25 28 -5 102 -16
165 -25 63 -8 149 -20 190 -25 41 -6 171 -17 289 -25 705 -49 1380 27 2176
245 44 12 89 25 100 27 41 11 484 143 580 173 55 17 135 43 178 56 42 13 114
36 160 50 182 58 272 85 502 153 362 107 445 129 725 195 743 173 1496 202
2100 82 505 -100 940 -292 1365 -601 213 -155 382 -302 625 -545 241 -239 287
-288 444 -465 128 -143 144 -163 211 -240 33 -39 62 -72 65 -75 3 -3 28 -32
55 -65 47 -56 389 -456 446 -520 348 -397 682 -730 934 -932 58 -46 190 -146
211 -160 11 -7 44 -30 74 -52 179 -126 470 -280 685 -361 658 -250 1424 -240
2120 28 126 49 169 67 293 129 l132 65 0 1249 c0 1119 -2 1249 -15 1249 -9 0
-73 -6 -143 -14 -70 -8 -179 -21 -242 -28 -184 -20 -809 -17 -985 5 -449 58
-745 141 -1060 297 -219 108 -353 192 -536 338 -108 85 -345 322 -432 432
-109 136 -245 343 -316 480 -35 67 -60 102 -70 98 -3 -2 -3140 -5 -6971 -8z"/>
</g>
</svg>
